<?xml version="1.0" encoding="UTF-8" standalone="no"?>
<svg
   xmlns:dc="http://purl.org/dc/elements/1.1/"
   xmlns:cc="http://creativecommons.org/ns#"
   xmlns:rdf="http://www.w3.org/1999/02/22-rdf-syntax-ns#"
   xmlns:svg="http://www.w3.org/2000/svg"
   xmlns="http://www.w3.org/2000/svg"
   xmlns:sodipodi="http://sodipodi.sourceforge.net/DTD/sodipodi-0.dtd"
   xmlns:inkscape="http://www.inkscape.org/namespaces/inkscape"
   width="512"
   height="512"
   viewBox="0 0 135.46666 135.46667"
   version="1.1"
   id="svg8"
   inkscape:version="1.0.2 (1.0.2+r75+1)"
   sodipodi:docname="default.svg">
  <defs
     id="defs2" />
  <sodipodi:namedview
     id="base"
     pagecolor="#ffffff"
     bordercolor="#666666"
     borderopacity="1.0"
     inkscape:pageopacity="0.0"
     inkscape:pageshadow="2"
     inkscape:zoom="0.73962864"
     inkscape:cx="213.69437"
     inkscape:cy="264.547"
     inkscape:document-units="px"
     inkscape:current-layer="g849"
     inkscape:document-rotation="0"
     showgrid="false"
     units="px"
     inkscape:snap-smooth-nodes="true"
     inkscape:snap-object-midpoints="true"
     inkscape:snap-page="true"
     inkscape:object-paths="false"
     inkscape:window-width="1200"
     inkscape:window-height="742"
     inkscape:window-x="0"
     inkscape:window-y="32"
     inkscape:window-maximized="1" />
  <metadata
     id="metadata5">
    <rdf:RDF>
      <cc:Work
         rdf:about="">
        <dc:format>image/svg+xml</dc:format>
        <dc:type
           rdf:resource="http://purl.org/dc/dcmitype/StillImage" />
        <dc:title />
      </cc:Work>
    </rdf:RDF>
  </metadata>
  <g
     inkscape:label="Layer 1"
     inkscape:groupmode="layer"
     id="layer1">
    <g
       style="fill:#000000"
       id="g849"
       transform="matrix(5.6444443,0,0,5.6444443,-4.3937221e-6,-2.2464908e-5)">
      <g
         id="g835">
        <path
           id="path837-3"
           style="fill:#e5e5e5;stroke-width:25.6;fill-opacity:1"
           d="M 102.40039 0 C 74.240391 0 51.455078 23.039219 51.455078 51.199219 L 51.199219 460.80078 C 51.199219 488.96078 73.984532 512 102.14453 512 L 409.59961 512 C 437.75961 512 460.80078 488.96078 460.80078 460.80078 L 460.80078 153.59961 L 307.19922 0 L 102.40039 0 z "
           transform="matrix(0.046875,0,0,0.046875,7.7841535e-7,3.9800035e-6)" />
        <path
           id="rect837"
           style="fill:#c3c3c3;stroke-width:6.37481;fill-opacity:1"
           d="M 307.25195 0.052734375 C 307.22565 0.74397221 307.19922 1.4349099 307.19922 2.1328125 L 307.19922 100.26758 C 307.19922 129.81424 330.98654 153.59961 360.5332 153.59961 L 458.66602 153.59961 C 459.36473 153.59961 460.05797 153.57519 460.75 153.54883 L 307.25195 0.052734375 z "
           transform="matrix(0.046875,0,0,0.046875,7.7841535e-7,3.9800035e-6)" />
      </g>
    </g>
  </g>
</svg>
