<?xml version="1.0" encoding="UTF-8" standalone="no"?>
<svg
   xmlns:dc="http://purl.org/dc/elements/1.1/"
   xmlns:cc="http://creativecommons.org/ns#"
   xmlns:rdf="http://www.w3.org/1999/02/22-rdf-syntax-ns#"
   xmlns:svg="http://www.w3.org/2000/svg"
   xmlns="http://www.w3.org/2000/svg"
   xmlns:sodipodi="http://sodipodi.sourceforge.net/DTD/sodipodi-0.dtd"
   xmlns:inkscape="http://www.inkscape.org/namespaces/inkscape"
   width="512"
   height="512"
   viewBox="0 0 135.46666 135.46667"
   version="1.1"
   id="svg8"
   inkscape:version="1.0.2 (1.0.2+r75+1)"
   sodipodi:docname="writer.svg">
  <defs
     id="defs2" />
  <sodipodi:namedview
     id="base"
     pagecolor="#ffffff"
     bordercolor="#666666"
     borderopacity="1.0"
     inkscape:pageopacity="0.0"
     inkscape:pageshadow="2"
     inkscape:zoom="0.75942968"
     inkscape:cx="191.19292"
     inkscape:cy="227.08636"
     inkscape:document-units="px"
     inkscape:current-layer="g849"
     inkscape:document-rotation="0"
     showgrid="false"
     units="px"
     inkscape:snap-smooth-nodes="true"
     inkscape:snap-object-midpoints="true"
     inkscape:snap-page="true"
     inkscape:object-paths="false"
     inkscape:window-width="1200"
     inkscape:window-height="742"
     inkscape:window-x="0"
     inkscape:window-y="32"
     inkscape:window-maximized="1"
     inkscape:snap-center="true" />
  <metadata
     id="metadata5">
    <rdf:RDF>
      <cc:Work
         rdf:about="">
        <dc:format>image/svg+xml</dc:format>
        <dc:type
           rdf:resource="http://purl.org/dc/dcmitype/StillImage" />
        <dc:title />
      </cc:Work>
    </rdf:RDF>
  </metadata>
  <g
     inkscape:label="Layer 1"
     inkscape:groupmode="layer"
     id="layer1">
    <g
       style="fill:#000000"
       id="g849"
       transform="matrix(5.6444443,0,0,5.6444443,-4.3937221e-6,-2.2464908e-5)">
      <g
         id="g954">
        <g
           id="g945">
          <path
             id="path837-3"
             style="fill:#e5e5e5;stroke-width:25.6;fill-opacity:1"
             d="M 102.40039 0 C 74.240391 0 51.455078 23.039219 51.455078 51.199219 L 51.199219 460.80078 C 51.199219 488.96078 73.984532 512 102.14453 512 L 409.59961 512 C 437.75961 512 460.80078 488.96078 460.80078 460.80078 L 460.80078 153.59961 L 307.19922 0 L 102.40039 0 z "
             transform="matrix(0.046875,0,0,0.046875,7.7841535e-7,3.9800035e-6)" />
          <path
             id="rect837"
             style="fill:#c3c3c3;stroke-width:6.37481;fill-opacity:1"
             d="M 307.25195 0.052734375 C 307.22565 0.74397221 307.19922 1.4349099 307.19922 2.1328125 L 307.19922 100.26758 C 307.19922 129.81424 330.98654 153.59961 360.5332 153.59961 L 458.66602 153.59961 C 459.36473 153.59961 460.05797 153.57519 460.75 153.54883 L 307.25195 0.052734375 z "
             transform="matrix(0.046875,0,0,0.046875,7.7841535e-7,3.9800035e-6)" />
        </g>
        <g
           id="g934">
          <rect
             style="fill:#b2b2b2;fill-opacity:1;stroke-width:0.165174"
             id="rect839"
             width="14.95056"
             height="2.0242159"
             x="4.5247211"
             y="9.1341619"
             ry="0.62433851" />
          <rect
             style="fill:#b2b2b2;fill-opacity:1;stroke-width:0.165174"
             id="rect839-7"
             width="14.95056"
             height="2.0242159"
             x="4.5247211"
             y="12.760635"
             ry="0.62433851" />
          <rect
             style="fill:#b2b2b2;fill-opacity:1;stroke-width:0.132621"
             id="rect839-5"
             width="9.6383009"
             height="2.0242159"
             x="9.8369808"
             y="16.38711"
             ry="0.62433851" />
        </g>
      </g>
      <g
         id="g929">
        <rect
           style="fill:#4688f2;stroke-width:0.224114;fill-opacity:1"
           id="rect833"
           width="7.5"
           height="7.5"
           x="7.7841537e-07"
           y="16.500004"
           ry="1.5" />
        <g
           aria-label="W"
           transform="scale(0.99463097,1.005398)"
           id="text837"
           style="font-size:6.39406px;line-height:1.25;font-family:'DejaVu Sans Mono';-inkscape-font-specification:'DejaVu Sans Mono';word-spacing:0px;stroke-width:0.15985">
          <path
             d="m 2.2716199,22.379196 -0.959109,-4.475842 h 0.7864694 l 0.530707,2.634353 q 0.070335,0.370855 0.076729,0.428402 0.019182,-0.140669 0.089517,-0.428402 l 0.6585882,-2.634353 h 0.6521941 l 0.6713763,2.627959 q 0.063941,0.230186 0.089517,0.428402 0.025576,-0.185428 0.076729,-0.422008 l 0.530707,-2.634353 h 0.7736812 l -0.965503,4.475842 H 4.5798756 L 3.8573468,19.610568 Q 3.7870122,19.3612 3.76783,19.194954 q -0.019182,0.153458 -0.083123,0.40922 l -0.7097407,2.775022 z"
             style="font-style:normal;font-variant:normal;font-weight:bold;font-stretch:normal;font-family:Overpass;-inkscape-font-specification:Overpass;fill:#ffffff;fill-opacity:1;stroke-width:0.15985"
             id="path901" />
        </g>
      </g>
    </g>
  </g>
</svg>
