<?xml version="1.0" encoding="UTF-8" standalone="no"?>
<svg
   xmlns:dc="http://purl.org/dc/elements/1.1/"
   xmlns:cc="http://creativecommons.org/ns#"
   xmlns:rdf="http://www.w3.org/1999/02/22-rdf-syntax-ns#"
   xmlns:svg="http://www.w3.org/2000/svg"
   xmlns="http://www.w3.org/2000/svg"
   xmlns:sodipodi="http://sodipodi.sourceforge.net/DTD/sodipodi-0.dtd"
   xmlns:inkscape="http://www.inkscape.org/namespaces/inkscape"
   width="1024"
   height="512"
   viewBox="0 0 270.93332 135.46667"
   version="1.1"
   id="svg8"
   inkscape:version="1.0.1 (3bc2e81, 2020-09-07)"
   sodipodi:docname="offlineFolderMessage_dark.svg">
  <defs
     id="defs2" />
  <sodipodi:namedview
     id="base"
     pagecolor="#ffffff"
     bordercolor="#666666"
     borderopacity="1.0"
     inkscape:pageopacity="0.0"
     inkscape:pageshadow="2"
     inkscape:zoom="0.88240152"
     inkscape:cx="498.32843"
     inkscape:cy="221.34934"
     inkscape:document-units="px"
     inkscape:current-layer="g876"
     inkscape:document-rotation="0"
     showgrid="false"
     units="px"
     inkscape:snap-smooth-nodes="true"
     inkscape:snap-object-midpoints="true"
     inkscape:snap-page="true"
     inkscape:object-paths="false"
     inkscape:window-width="1920"
     inkscape:window-height="1020"
     inkscape:window-x="0"
     inkscape:window-y="32"
     inkscape:window-maximized="1" />
  <metadata
     id="metadata5">
    <rdf:RDF>
      <cc:Work
         rdf:about="">
        <dc:format>image/svg+xml</dc:format>
        <dc:type
           rdf:resource="http://purl.org/dc/dcmitype/StillImage" />
        <dc:title />
      </cc:Work>
    </rdf:RDF>
  </metadata>
  <g
     inkscape:label="Layer 1"
     inkscape:groupmode="layer"
     id="layer1">
    <g
       id="g876"
       transform="matrix(1.2047491,0,0,1.2047491,-13.901764,-13.905836)">
      <g
         id="g874">
        <g
           id="g862">
          <g
             id="g837"
             transform="matrix(0.77653384,0,0,0.77653384,140.14989,15.143063)">
            <path
               d="M 56.516688,22.697894 H 22.783524 c -6.184414,0 -11.188167,5.059974 -11.188167,11.244388 l -0.05622,67.466328 c 0,6.18441 5.059974,11.24439 11.244388,11.24439 h 89.955105 c 6.18441,0 11.24439,-5.05998 11.24439,-11.24439 V 45.18667 c 0,-6.184414 -5.05998,-11.244388 -11.24439,-11.244388 H 67.761076 Z"
               id="path835"
               style="fill:#1a1a1a;fill-opacity:1;stroke-width:5.62219" />
            <rect
               style="fill:#f3f3f3;fill-opacity:1;stroke-width:1.24899"
               id="rect833"
               width="89.647415"
               height="62.221107"
               x="22.937376"
               y="39.200306"
               ry="5.8748012" />
            <rect
               style="fill:#333333;fill-opacity:1;stroke-width:4.52834"
               id="rect849"
               width="112.44388"
               height="67.652641"
               x="11.539136"
               y="45.178379"
               ry="11.52989" />
          </g>
        </g>
        <path
           d="m 46.480687,32.857865 c 19.26842,0 34.87164,15.638164 34.87164,34.90659 0,19.268504 -15.60322,34.906595 -34.87164,34.906595 -19.303376,0 -34.941552,-15.638091 -34.941552,-34.906595 0,-19.268426 15.638176,-34.90659 34.941552,-34.90659 z M 22.290373,53.801867 h 10.297436 c 1.117042,-4.363304 2.722774,-8.552088 4.817156,-12.426724 -6.422798,2.199056 -11.763516,6.667106 -15.114592,12.426724 z M 46.445727,39.978831 c -2.8972,4.188784 -5.166126,8.831352 -6.667096,13.823036 h 13.334296 c -1.501,-4.991684 -3.7699,-9.634252 -6.6672,-13.823036 z m 27.0177,34.766958 c 0.55868,-2.234022 0.90756,-4.572712 0.90756,-6.981334 0,-2.408542 -0.34888,-4.74723 -0.90756,-6.981254 h -11.79842 c 0.27894,2.3038 0.48874,4.6076 0.48874,6.981254 0,2.373656 -0.20976,4.677534 -0.48874,6.981334 z m -2.86234,6.981334 h -10.29742 c -1.11698,4.363306 -2.7227,8.55209 -4.8171,12.426722 6.42282,-2.199134 11.76354,-6.632216 15.11452,-12.426722 z M 60.303667,53.801867 h 10.29742 c -3.35098,-5.794504 -8.6917,-10.227668 -15.11452,-12.426724 2.0944,3.874636 3.70012,8.06342 4.8171,12.426724 z m -13.85794,41.748294 c 2.8973,-4.188784 5.1662,-8.831432 6.6672,-13.823038 H 39.778631 c 1.50097,4.991606 3.769896,9.634254 6.667096,13.823038 z M 38.277661,74.745789 h 16.336226 c 0.31392,-2.3038 0.5587,-4.607678 0.5587,-6.981334 0,-2.373654 -0.244,-4.71234 -0.5587,-6.981254 H 38.277661 c -0.313926,2.268914 -0.558704,4.6076 -0.558704,6.981254 0,2.373656 0.243984,4.677534 0.558704,6.981334 z M 37.404965,94.153845 C 35.310583,90.279213 33.704851,86.090429 32.587809,81.727123 H 22.290373 c 3.351076,5.759618 8.691794,10.227588 15.114592,12.426722 z M 31.226469,74.745789 c -0.278944,-2.3038 -0.488762,-4.607678 -0.488762,-6.981334 0,-2.373654 0.209846,-4.677454 0.488762,-6.981254 h -11.79843 c -0.55868,2.234024 -0.907562,4.572712 -0.907562,6.981254 0,2.408622 0.348882,4.747312 0.907562,6.981334 z"
           id="path837"
           style="fill:#333333;fill-opacity:1;stroke-width:3.49068" />
        <g
           id="g856">
          <rect
             style="fill:#333333;fill-opacity:1;stroke-width:2.77356"
             id="rect853"
             width="11.443478"
             height="5.1606073"
             x="89.904594"
             y="65.184151"
             ry="2.5803037" />
          <rect
             style="fill:#333333;fill-opacity:1;stroke-width:2.77356"
             id="rect853-6"
             width="11.443478"
             height="5.1606073"
             x="109.50963"
             y="65.184151"
             ry="2.5803037" />
          <rect
             style="fill:#333333;fill-opacity:1;stroke-width:2.77356"
             id="rect853-7"
             width="11.443478"
             height="5.1606073"
             x="129.11467"
             y="65.184151"
             ry="2.5803037" />
        </g>
      </g>
    </g>
  </g>
</svg>
